<svg id="Layer_1" data-name="Layer 1" xmlns="http://www.w3.org/2000/svg" xmlns:xlink="http://www.w3.org/1999/xlink" viewBox="27.22 8.42 667.7 134.15">
  <defs>
    <style>
      .cls-1 {
        fill: url(#linear-gradient);
      }

      .cls-2 {
        fill: none;
        stroke: #a6a8ab;
        stroke-miterlimit: 10;
        stroke-width: 3.12px;
      }

      .cls-3 {
        isolation: isolate;
      }

      .cls-4 {
        fill: #fff;
      }
    </style>
    <linearGradient id="linear-gradient" x1="148.56" y1="162.72" x2="-.04" y2="11.06" gradientTransform="translate(0 162) scale(1 -1)" gradientUnits="userSpaceOnUse">
      <stop offset=".1" stop-color="#dfc46f"/>
      <stop offset=".17" stop-color="#dabb6b"/>
      <stop offset=".3" stop-color="#d4af67"/>
      <stop offset=".44" stop-color="#d2ac66"/>
      <stop offset=".64" stop-color="#dfc46f"/>
      <stop offset=".91" stop-color="#de9461"/>
    </linearGradient>
  </defs>
  <line class="cls-2" x1="158.57" y1="23.14" x2="158.57" y2="132.95"/>
  <g class="cls-3">
    <g class="cls-3">
      <path class="cls-4" d="M203.9,71.89v-4.88l14.75-39h-13.83v-4.88h21.26v2.95l-15.56,40.93h15.56v4.88h-22.19Z"/>
      <path class="cls-4" d="M244.25,72.43c-3.64,0-6.43-.7-8.37-2.11-1.94-1.4-3.27-3.38-3.97-5.93-.7-2.55-1.05-5.53-1.05-8.94V23.14h6.7v32.62c0,2.09.14,3.99.43,5.72.29,1.73.92,3.09,1.89,4.09.97,1,2.43,1.5,4.37,1.5s3.45-.5,4.4-1.5c.95-1,1.57-2.37,1.86-4.09.29-1.72.43-3.63.43-5.72V23.14h6.63v32.32c0,3.41-.35,6.39-1.05,8.94-.7,2.55-2.02,4.52-3.94,5.93-1.92,1.41-4.7,2.11-8.34,2.11Z"/>
      <path class="cls-4" d="M264.96,71.89V23.14h7.01v21.07h12.9v-21.07h7.01v48.75h-7.01v-22.81h-12.9v22.81h-7.01Z"/>
      <path class="cls-4" d="M297.01,71.89l10.66-48.75h6.76l10.73,48.75h-6.63l-2.29-12.28h-10.23l-2.42,12.28h-6.57ZM306.93,54.74h8.37l-4.22-21.97-4.15,21.97Z"/>
      <path class="cls-4" d="M344.44,71.89V23.14h10.91c3.72,0,6.67.55,8.83,1.66,2.17,1.1,3.72,2.76,4.65,4.97.93,2.21,1.39,4.96,1.39,8.25v17.94c0,3.45-.46,6.36-1.39,8.73-.93,2.37-2.44,4.16-4.53,5.39-2.09,1.22-4.89,1.84-8.4,1.84h-11.47ZM351.44,67.01h3.97c2.56,0,4.38-.48,5.46-1.44,1.07-.96,1.73-2.37,1.95-4.21.23-1.85.34-4.07.34-6.68v-15.83c0-2.53-.17-4.57-.5-6.14-.33-1.56-1.05-2.71-2.17-3.43-1.12-.72-2.87-1.08-5.27-1.08h-3.78v38.82Z"/>
      <path class="cls-4" d="M389.94,72.43c-3.39,0-6.1-.64-8.12-1.93-2.03-1.28-3.47-3.12-4.34-5.51-.87-2.39-1.3-5.19-1.3-8.4v-18.48c0-3.21.44-5.97,1.33-8.28.89-2.31,2.33-4.07,4.34-5.3,2-1.22,4.7-1.84,8.09-1.84s6.08.62,8.06,1.87c1.98,1.24,3.42,3.01,4.31,5.3.89,2.29,1.33,5.04,1.33,8.25v18.54c0,3.17-.44,5.94-1.33,8.31-.89,2.37-2.33,4.2-4.31,5.51-1.98,1.3-4.67,1.96-8.06,1.96ZM381.26,15.85v-6.68h6.7v6.68h-6.7ZM389.94,67.07c1.86,0,3.27-.37,4.22-1.11.95-.74,1.59-1.79,1.92-3.13.33-1.34.5-2.92.5-4.73v-21.37c0-1.81-.17-3.36-.5-4.67-.33-1.3-.97-2.31-1.92-3.01-.95-.7-2.36-1.05-4.22-1.05s-3.28.35-4.25,1.05c-.97.7-1.62,1.71-1.95,3.01-.33,1.3-.5,2.86-.5,4.67v21.37c0,1.81.17,3.38.5,4.73.33,1.34.98,2.39,1.95,3.13.97.74,2.39,1.11,4.25,1.11ZM391.93,15.85v-6.68h6.7v6.68h-6.7Z"/>
      <path class="cls-4" d="M419.08,71.89l-11.22-48.75h6.57l7.94,35.93,7.56-35.93h6.38l-11.1,48.75h-6.14Z"/>
      <path class="cls-4" d="M442.02,71.89V23.14h6.88v48.75h-6.88ZM442.08,17.54v-7.16h6.7v7.16h-6.7Z"/>
      <path class="cls-4" d="M455.47,71.89v-4.88l14.75-39h-13.83v-4.88h21.26v2.95l-15.56,40.93h15.56v4.88h-22.19Z"/>
      <path class="cls-4" d="M505.81,71.89l-11.22-48.75h6.57l7.94,35.93,7.56-35.93h6.38l-11.1,48.75h-6.14Z"/>
      <path class="cls-4" d="M528.38,71.89V23.14h19.47v5.06h-12.46v16.13h10.11v4.81h-10.11v17.88h12.58v4.88h-19.59Z"/>
      <path class="cls-4" d="M565.08,71.89l10.66-48.75h6.76l10.72,48.75h-6.63l-2.29-12.28h-10.23l-2.42,12.28h-6.57ZM574.99,54.74h8.37l-4.22-21.97-4.15,21.97Z"/>
      <path class="cls-4" d="M598.3,71.89V23.14h7v43.88h12.83v4.88h-19.84Z"/>
      <path class="cls-4" d="M623.6,71.89V28.19h-8.49v-5.06h23.74v5.06h-8.25v43.7h-7Z"/>
      <path class="cls-4" d="M644.06,71.89V23.14h6.88v48.75h-6.88Z"/>
      <path class="cls-4" d="M659.06,71.89V23.14h4.77l14.26,32.38V23.14h5.83v48.75h-4.46l-14.44-33.29v33.29h-5.95Z"/>
    </g>
  </g>
  <g class="cls-3">
    <g class="cls-3">
      <path class="cls-4" d="M209.51,133v-11.63l-7.33-21.31h4.4l5.19,15.9,5.11-15.9h4.44l-7.29,21.31v11.63h-4.52Z"/>
      <path class="cls-4" d="M224.46,133v-32.93h13.15v3.42h-8.42v10.9h6.83v3.25h-6.83v12.08h8.5v3.29h-13.23Z"/>
      <path class="cls-4" d="M245.23,133v-29.52h-5.74v-3.42h16.04v3.42h-5.57v29.52h-4.73Z"/>
      <path class="cls-4" d="M258.8,133v-32.93h4.73v15.53l7.79-15.53h4.4l-6.7,14.52,7.79,18.42h-4.61l-6.49-15.45-2.18,3.82v11.63h-4.73Z"/>
      <path class="cls-4" d="M279.78,133v-32.93h4.65v32.93h-4.65ZM279.83,96.28v-4.84h4.52v4.84h-4.52Z"/>
      <path class="cls-4" d="M289.92,133v-32.93h4.73v29.64h8.67v3.29h-13.4Z"/>
      <path class="cls-4" d="M306.8,133v-32.93h4.65v32.93h-4.65ZM306.84,96.28v-4.84h4.52v4.84h-4.52Z"/>
      <path class="cls-4" d="M326.44,133l.63-32.93h4.65l5.99,26.71,6.03-26.71h4.61l.63,32.93h-3.81l-.38-23.91-5.74,23.91h-2.68l-5.7-23.91-.38,23.91h-3.85Z"/>
      <path class="cls-4" d="M362.91,133.37c-2.46,0-4.34-.47-5.65-1.42-1.31-.95-2.21-2.28-2.68-4.01-.48-1.72-.71-3.73-.71-6.04v-21.83h4.52v22.04c0,1.41.1,2.7.29,3.86.19,1.17.62,2.09,1.28,2.76.66.68,1.64,1.02,2.95,1.02s2.33-.34,2.97-1.02,1.06-1.6,1.26-2.76c.2-1.17.29-2.45.29-3.86v-22.04h4.48v21.83c0,2.3-.24,4.32-.71,6.04-.48,1.72-1.36,3.06-2.66,4.01-1.3.95-3.18,1.42-5.63,1.42ZM357.05,95.15v-4.51h4.52v4.51h-4.52ZM364.25,95.15v-4.51h4.52v4.51h-4.52Z"/>
      <path class="cls-4" d="M376.9,133v-32.93h13.15v3.42h-8.42v10.9h6.83v3.25h-6.83v12.08h8.5v3.29h-13.23Z"/>
      <path class="cls-4" d="M401.95,133.37c-1.96,0-3.58-.41-4.88-1.22-1.3-.81-2.28-1.94-2.95-3.38-.67-1.44-1.06-3.1-1.17-5l4.19-1.1c.08,1.17.27,2.29.57,3.38.29,1.08.77,1.97,1.44,2.66.67.69,1.6,1.04,2.81,1.04s2.16-.33,2.79-1c.63-.66.94-1.62.94-2.87,0-1.49-.35-2.69-1.05-3.6-.7-.91-1.58-1.82-2.64-2.75l-5.7-4.88c-1.12-.95-1.94-1.99-2.47-3.11-.53-1.12-.79-2.51-.79-4.17,0-2.41.71-4.28,2.14-5.61s3.36-1.99,5.82-1.99c1.34,0,2.52.17,3.54.51,1.02.34,1.87.86,2.55,1.57.68.71,1.23,1.59,1.63,2.66.4,1.07.68,2.32.82,3.76l-4.02,1.06c-.08-1.08-.25-2.08-.5-2.99s-.69-1.64-1.32-2.2c-.63-.56-1.53-.83-2.7-.83s-2.09.3-2.74.91c-.66.61-.98,1.51-.98,2.71,0,1,.17,1.83.52,2.48.35.65.92,1.32,1.7,1.99l5.74,4.88c1.28,1.08,2.41,2.38,3.39,3.88s1.47,3.29,1.47,5.35c0,1.63-.35,3.03-1.05,4.21-.7,1.18-1.65,2.08-2.87,2.7-1.21.62-2.62.93-4.21.93Z"/>
      <path class="cls-4" d="M421.46,133.37c-1.96,0-3.58-.41-4.88-1.22-1.3-.81-2.28-1.94-2.95-3.38-.67-1.44-1.06-3.1-1.17-5l4.19-1.1c.08,1.17.27,2.29.57,3.38.29,1.08.78,1.97,1.45,2.66.67.69,1.6,1.04,2.81,1.04s2.16-.33,2.78-1c.63-.66.94-1.62.94-2.87,0-1.49-.35-2.69-1.05-3.6-.7-.91-1.58-1.82-2.64-2.75l-5.7-4.88c-1.12-.95-1.94-1.99-2.47-3.11-.53-1.12-.8-2.51-.8-4.17,0-2.41.71-4.28,2.14-5.61s3.36-1.99,5.82-1.99c1.34,0,2.52.17,3.54.51,1.02.34,1.87.86,2.55,1.57.68.71,1.23,1.59,1.63,2.66.41,1.07.68,2.32.82,3.76l-4.02,1.06c-.08-1.08-.25-2.08-.5-2.99-.25-.91-.69-1.64-1.32-2.2-.63-.56-1.53-.83-2.7-.83s-2.09.3-2.74.91c-.66.61-.98,1.51-.98,2.71,0,1,.17,1.83.52,2.48.35.65.91,1.32,1.7,1.99l5.74,4.88c1.28,1.08,2.41,2.38,3.39,3.88.98,1.5,1.46,3.29,1.46,5.35,0,1.63-.35,3.03-1.05,4.21-.7,1.18-1.65,2.08-2.87,2.7-1.21.62-2.62.93-4.21.93Z"/>
      <path class="cls-4" d="M433.27,133v-32.93h13.15v3.42h-8.42v10.9h6.83v3.25h-6.83v12.08h8.5v3.29h-13.23Z"/>
      <path class="cls-4" d="M458.32,133.37c-1.96,0-3.58-.41-4.88-1.22-1.3-.81-2.28-1.94-2.95-3.38-.67-1.44-1.06-3.1-1.17-5l4.19-1.1c.08,1.17.27,2.29.57,3.38.29,1.08.78,1.97,1.45,2.66.67.69,1.6,1.04,2.81,1.04s2.16-.33,2.78-1c.63-.66.94-1.62.94-2.87,0-1.49-.35-2.69-1.05-3.6-.7-.91-1.58-1.82-2.64-2.75l-5.7-4.88c-1.12-.95-1.94-1.99-2.47-3.11-.53-1.12-.8-2.51-.8-4.17,0-2.41.71-4.28,2.14-5.61s3.36-1.99,5.82-1.99c1.34,0,2.52.17,3.54.51,1.02.34,1.87.86,2.55,1.57.68.71,1.23,1.59,1.63,2.66.41,1.07.68,2.32.82,3.76l-4.02,1.06c-.08-1.08-.25-2.08-.5-2.99-.25-.91-.69-1.64-1.32-2.2-.63-.56-1.53-.83-2.7-.83s-2.09.3-2.74.91c-.66.61-.98,1.51-.98,2.71,0,1,.17,1.83.52,2.48.35.65.91,1.32,1.7,1.99l5.74,4.88c1.28,1.08,2.41,2.38,3.39,3.88.98,1.5,1.46,3.29,1.46,5.35,0,1.63-.35,3.03-1.05,4.21-.7,1.18-1.65,2.08-2.87,2.7-1.21.62-2.62.93-4.21.93Z"/>
      <path class="cls-4" d="M470.12,133v-32.93h13.15v3.42h-8.42v10.9h6.83v3.25h-6.83v12.08h8.5v3.29h-13.23Z"/>
      <path class="cls-4" d="M494.92,133l7.2-32.93h4.56l7.25,32.93h-4.48l-1.55-8.29h-6.91l-1.63,8.29h-4.44ZM501.62,121.41h5.65l-2.85-14.84-2.81,14.84Z"/>
      <path class="cls-4" d="M516.78,133v-4.84h4.48v4.84h-4.48Z"/>
      <path class="cls-4" d="M533.24,133.37c-1.96,0-3.58-.41-4.88-1.22-1.3-.81-2.28-1.94-2.95-3.38-.67-1.44-1.06-3.1-1.17-5l4.19-1.1c.08,1.17.27,2.29.57,3.38.29,1.08.77,1.97,1.44,2.66.67.69,1.6,1.04,2.81,1.04s2.16-.33,2.79-1c.63-.66.94-1.62.94-2.87,0-1.49-.35-2.69-1.05-3.6-.7-.91-1.58-1.82-2.64-2.75l-5.7-4.88c-1.12-.95-1.94-1.99-2.47-3.11-.53-1.12-.79-2.51-.79-4.17,0-2.41.71-4.28,2.14-5.61s3.36-1.99,5.82-1.99c1.34,0,2.52.17,3.54.51,1.02.34,1.87.86,2.55,1.57.68.71,1.23,1.59,1.63,2.66.4,1.07.68,2.32.82,3.76l-4.02,1.06c-.08-1.08-.25-2.08-.5-2.99s-.69-1.64-1.32-2.2c-.63-.56-1.53-.83-2.7-.83s-2.09.3-2.74.91c-.66.61-.98,1.51-.98,2.71,0,1,.17,1.83.52,2.48.35.65.92,1.32,1.7,1.99l5.74,4.88c1.28,1.08,2.41,2.38,3.39,3.88s1.47,3.29,1.47,5.35c0,1.63-.35,3.03-1.05,4.21-.7,1.18-1.65,2.08-2.87,2.7-1.21.62-2.62.93-4.21.93ZM533.07,142.55c-.45,0-.91-.04-1.38-.12-.48-.08-.95-.18-1.42-.29v-2.2c.36.11.72.18,1.09.22.36.04.71.06,1.05.06.73,0,1.33-.12,1.82-.37s.73-.65.73-1.22c0-.49-.14-.88-.42-1.16-.28-.28-.68-.52-1.21-.69-.53-.18-1.17-.32-1.93-.43v-3.38h2.26v2.28c1.4,0,2.52.31,3.37.93.85.62,1.28,1.48,1.28,2.56,0,.87-.23,1.58-.69,2.13s-1.09.97-1.88,1.24c-.8.27-1.68.41-2.66.41Z"/>
      <path class="cls-4" d="M544.46,133v-4.84h4.48v4.84h-4.48Z"/>
    </g>
  </g>
  <path class="cls-1" d="M41.41,70.93l-14.03-20.14,20.4-27.67h47.36l20.43,27.73-39.94,54.38-6.44-8.77,33.5-45.6-12.78-17.33h-36.92l-12.84,17.42,7.75,11.11-6.5,8.87h0ZM94.9,93.99l7.75,11.11-12.84,17.42h-36.92l-12.78-17.33,33.5-45.6-6.44-8.77-39.94,54.38,20.43,27.73h47.36l20.4-27.67-14.03-20.14-6.5,8.87h0ZM123.21,16.06c0,1.36-.34,2.63-1.03,3.83s-1.62,2.13-2.79,2.79c-1.21.67-2.47,1-3.8,1s-2.64-.34-3.84-1.03-2.12-1.62-2.77-2.8c-.67-1.21-1.01-2.48-1.01-3.79s.35-2.66,1.05-3.87c.69-1.21,1.64-2.14,2.83-2.78,1.22-.66,2.47-.99,3.75-.99,1.35,0,2.63.34,3.83,1.03,1.2.69,2.12,1.61,2.77,2.78.68,1.22,1.02,2.5,1.02,3.83h-.01ZM121.95,16.06c0-1.15-.29-2.23-.87-3.24s-1.37-1.78-2.37-2.32c-1.02-.55-2.06-.82-3.13-.82-1.13,0-2.2.29-3.2.86s-1.77,1.35-2.32,2.33c-.58,1.02-.87,2.09-.87,3.2s.29,2.2.87,3.2,1.36,1.77,2.34,2.33c1.01.56,2.07.84,3.17.84s2.21-.29,3.21-.87,1.77-1.36,2.32-2.34c.55-1.01.83-2.07.83-3.16h.02ZM118.13,18.67l1,1.61h-1.61l-.73-1.3c-.57-1.02-1.03-1.65-1.39-1.92-.26-.2-.61-.29-1.08-.29h-.78v3.51h-1.31v-8.24h2.82c.79,0,1.36.04,1.72.12.63.14,1.1.44,1.4.9.26.38.39.78.39,1.21,0,.65-.23,1.2-.7,1.63-.44.41-.99.63-1.65.69.29.13.52.27.7.44.34.33.74.87,1.21,1.63h.01ZM117.17,14.39c0-.51-.26-.87-.77-1.07-.24-.1-.69-.15-1.34-.15h-1.52v2.47h1.62c1.34,0,2.01-.42,2.01-1.25h0Z"/>
  <g class="cls-3">
    <g class="cls-3">
      <path class="cls-4" d="M576.9,138.95c-1.23-.02-2.24-.26-3.03-.74-.79-.47-1.41-1.13-1.86-1.96-.45-.83-.78-1.78-.99-2.84-.21-1.06-.33-2.2-.37-3.42s-.06-2.43-.06-3.64.02-2.45.06-3.66.17-2.35.37-3.42c.21-1.07.54-2.03.99-2.86.45-.83,1.08-1.49,1.86-1.97.79-.48,1.8-.72,3.03-.72v1.8c-.76.02-1.34.35-1.75.99-.41.64-.7,1.48-.88,2.53-.17,1.05-.28,2.21-.31,3.48-.03,1.27-.05,2.55-.05,3.83s.02,2.58.05,3.85c.03,1.27.13,2.43.31,3.48.17,1.05.46,1.89.88,2.52.41.63,1,.96,1.75.97v1.77Z"/>
      <path class="cls-4" d="M578.49,134.11l5.58-20.21h3.54l5.61,20.21h-3.47l-1.2-5.09h-5.35l-1.26,5.09h-3.44ZM583.68,127h4.38l-2.21-9.11-2.17,9.11Z"/>
      <path class="cls-4" d="M609.56,134.36c-1.64,0-2.96-.27-3.94-.81-.98-.54-1.7-1.33-2.14-2.36-.44-1.03-.67-2.27-.67-3.72v-6.76c0-1.48.2-2.74.6-3.78.4-1.04,1.11-1.83,2.14-2.38,1.03-.55,2.46-.82,4.3-.82,1.64,0,2.97.21,3.97.64,1.01.42,1.74,1.07,2.19,1.95.46.87.68,1.97.68,3.3v.75h-3.44v-.62c0-.88-.08-1.6-.23-2.16-.15-.56-.46-.97-.92-1.25s-1.2-.41-2.19-.41c-1.08,0-1.87.19-2.35.57-.49.38-.79.9-.91,1.56s-.18,1.4-.18,2.23v7.49c0,.96.09,1.77.28,2.42.18.65.54,1.13,1.05,1.45.52.32,1.25.47,2.21.47s1.69-.17,2.21-.52c.52-.35.88-.87,1.07-1.55.2-.68.29-1.53.29-2.54v-1.4h-3.34v-2h6.65v10h-2.3l-.36-2.32c-.35.75-.89,1.37-1.62,1.85-.74.48-1.75.72-3.05.72Z"/>
      <path class="cls-4" d="M620.66,134.11v-20.21h5.29c1.75,0,3.2.18,4.35.54,1.15.36,1.99.93,2.55,1.72.55.79.83,1.83.83,3.11,0,.78-.11,1.49-.32,2.13-.22.64-.56,1.18-1.04,1.62-.48.44-1.1.76-1.88.96l3.73,10.13h-3.54l-3.44-9.48h-2.86v9.48h-3.66ZM624.32,122.61h1.39c1.04,0,1.88-.1,2.53-.3.65-.2,1.12-.54,1.43-1.02.3-.48.45-1.16.45-2.02,0-1.18-.28-2.03-.84-2.56s-1.68-.79-3.34-.79h-1.62v6.69Z"/>
      <path class="cls-4" d="M644.2,134.33c-1.9,0-3.36-.29-4.38-.87-1.02-.58-1.71-1.4-2.08-2.46s-.55-2.29-.55-3.71v-13.4h3.5v13.52c0,.86.08,1.65.23,2.37.15.72.48,1.28.99,1.7.51.42,1.27.62,2.29.62s1.81-.21,2.3-.62c.5-.42.82-.98.97-1.7.15-.71.23-1.5.23-2.37v-13.52h3.47v13.4c0,1.41-.18,2.65-.55,3.71-.37,1.06-1.05,1.88-2.06,2.46s-2.46.87-4.36.87Z"/>
      <path class="cls-4" d="M655.04,134.11v-20.21h6.03c1.19,0,2.22.1,3.1.3.88.2,1.61.51,2.19.92s1.02.94,1.3,1.58.42,1.39.42,2.26-.14,1.55-.41,2.16c-.27.61-.68,1.09-1.23,1.44-.55.35-1.26.57-2.12.67,1.06.18,1.91.5,2.56.94.65.44,1.13,1.01,1.44,1.7.31.69.47,1.52.47,2.48,0,.87-.13,1.66-.39,2.37s-.67,1.32-1.22,1.82c-.55.5-1.25.89-2.11,1.16-.86.27-1.87.41-3.03.41h-7.01ZM658.7,122.33h2.17c1.04,0,1.85-.11,2.43-.34.58-.22.99-.59,1.23-1.08.24-.5.36-1.15.36-1.95,0-.93-.18-1.6-.55-2.02-.37-.42-.94-.68-1.72-.79-.78-.11-1.79-.16-3.05-.16h-.88v6.34ZM658.7,132.09h2.47c1.64,0,2.74-.29,3.29-.89.55-.59.83-1.54.83-2.86,0-.85-.15-1.56-.44-2.13s-.76-1.01-1.39-1.3-1.5-.44-2.58-.44h-2.17v7.61Z"/>
      <path class="cls-4" d="M678.81,134.33c-1.9,0-3.36-.29-4.38-.87-1.02-.58-1.71-1.4-2.08-2.46s-.55-2.29-.55-3.71v-13.4h3.5v13.52c0,.86.08,1.65.23,2.37.15.72.48,1.28.99,1.7.51.42,1.27.62,2.29.62s1.81-.21,2.3-.62c.5-.42.82-.98.97-1.7.15-.71.23-1.5.23-2.37v-13.52h3.47v13.4c0,1.41-.18,2.65-.55,3.71-.37,1.06-1.05,1.88-2.06,2.46s-2.46.87-4.36.87Z"/>
      <path class="cls-4" d="M688.54,138.95v-1.8c.78-.02,1.37-.35,1.79-.99.41-.64.7-1.48.88-2.53.17-1.05.28-2.21.31-3.49.03-1.28.05-2.56.05-3.84s-.02-2.58-.05-3.86c-.03-1.27-.14-2.43-.31-3.47-.17-1.04-.46-1.88-.88-2.51-.41-.63-1.01-.96-1.79-.97v-1.77c1.25,0,2.28.24,3.07.71.79.47,1.41,1.13,1.86,1.96s.78,1.78.99,2.86c.21,1.07.33,2.21.37,3.41s.06,2.41.06,3.64-.02,2.45-.06,3.65c-.04,1.21-.17,2.35-.37,3.43-.21,1.08-.54,2.04-.99,2.87-.45.83-1.08,1.48-1.86,1.96-.79.47-1.81.72-3.07.74Z"/>
    </g>
  </g>
</svg>